{"title":"Taking Lives (2004) BRrip x264 ","uid":6879263,"size":395717153,"categoryP":"video","categoryS":"movies","magnet":"?xt=urn:btih:0de47e88311bc6ef6a5391124fa35d5549017da9&amp;dn=Taking+Lives+%282004%29+BRrip+x264+&amp;tr=udp%3A%2F%2Ftracker.openbittorrent.com%3A80&amp;tr=udp%3A%2F%2Fopen.demonii.com%3A1337&amp;tr=udp%3A%2F%2Ftracker.coppersurfer.tk%3A6969&amp;tr=udp%3A%2F%2Fexodus.desync.com%3A6969","seeders":0,"leechers":1,"uploader":"pirate0610","files":-1,"time":1323585828,"description":"Taking Lives (2004) BRrip x264 \n\n\nDirector: D.J. Caruso\nWriters: Michael Pye (novel), Jon Bokenkamp (screen story)\nStars: Angelina Jolie, Ethan Hawke and Kiefer Sutherland\n\n\nVideo\nID                               : 0\nFormat                           : AVC\nFormat/Info                      : Advanced Video Codec\nFormat profile                   : &lt;a class=&quot;__cf_email__&quot; href=&quot;/cdn-cgi/l/email-protection&quot; data-cfemail=&quot;7e361719163e324b504f&quot;&gt;[email&amp;#160;protected]&lt;/a&gt;&lt;script cf-hash='f9e31' type=&quot;text/javascript&quot;&gt;\n/* &lt;![CDATA[ */!function(){try{var t=&quot;currentScript&quot;in document?document.currentScript:function(){for(var t=document.getElementsByTagName(&quot;script&quot;),e=t.length;e--;)if(t[e].getAttribute(&quot;cf-hash&quot;))return t[e]}();if(t&amp;&amp;t.previousSibling){var e,r,n,i,c=t.previousSibling,a=c.getAttribute(&quot;data-cfemail&quot;);if(a){for(e=&quot;&quot;,r=parseInt(a.substr(0,2),16),n=2;a.length-n;n+=2)i=parseInt(a.substr(n,2),16)^r,e+=String.fromCharCode(i);e=document.createTextNode(e),c.parentNode.replaceChild(e,c)}}}catch(u){}}();/* ]]&gt; */&lt;/script&gt;\nFormat settings, CABAC           : Yes\nFormat settings, ReFrames        : 5 frames\nCodec ID                         : h264\nDuration                         : 1h 49mn\nBit rate                         : 400 Kbps\nWidth                            : 688 pixels\nHeight                           : 288 pixels\nDisplay aspect ratio             : 2.35:1\nFrame rate                       : 23.976 fps\nColor space                      : YUV\nChroma subsampling               : 4:2:0\nBit depth                        : 8 bits\nScan type                        : Progressive\nBits/(Pixel*Frame)               : 0.084\nStream size                      : 313 MiB (83%)\nWriting library                  : x264 core\n\n\nAudio\nID                               : 1\nFormat                           : MPEG Audio\nFormat version                   : Version 1\nFormat profile                   : Layer 3\nMode                             : Joint stereo\nMode extension                   : MS Stereo\nCodec ID                         : 55\nCodec ID/Hint                    : MP3\nDuration                         : 1h 49mn\nBit rate mode                    : Variable\nBit rate                         : 68.1 Kbps\nChannel(s)                       : 2 channels\nSampling rate                    : 48.0 KHz\nStream size                      : 53.1 MiB (14%)\nAlignment                        : Aligned on interleaves\nInterleave, duration             : 24 ms (0.58 video frame)\nInterleave, preload duration     : 236 ms\nWriting library                  : LAME3.97\n\n\nScreens\n &lt;a href=&quot;\nhttp://www.shotpix.com/images/14290564079862184650.jpg&quot; rel=&quot;nofollow&quot; target=&quot;_NEW&quot;&gt;\nhttp://www.shotpix.com/images/14290564079862184650.jpg&lt;/a&gt; &lt;a href=&quot;\nhttp://www.shotpix.com/images/55121077444053652814.jpg&quot; rel=&quot;nofollow&quot; target=&quot;_NEW&quot;&gt;\nhttp://www.shotpix.com/images/55121077444053652814.jpg&lt;/a&gt; &lt;a href=&quot;\nhttp://www.shotpix.com/images/97564116588021479821.jpg&quot; rel=&quot;nofollow&quot; target=&quot;_NEW&quot;&gt;\nhttp://www.shotpix.com/images/97564116588021479821.jpg&lt;/a&gt; &lt;a href=&quot;\nhttp://www.shotpix.com/images/58516392219168344849.jpg&quot; rel=&quot;nofollow&quot; target=&quot;_NEW&quot;&gt;\nhttp://www.shotpix.com/images/58516392219168344849.jpg&lt;/a&gt; &lt;a href=&quot;\nhttp://www.shotpix.com/images/54073090482334177639.jpg&quot; rel=&quot;nofollow&quot; target=&quot;_NEW&quot;&gt;\nhttp://www.shotpix.com/images/54073090482334177639.jpg&lt;/a&gt; &lt;a href=&quot;\nhttp://www.shotpix.com/images/03559379145492721857.jpg&quot; rel=&quot;nofollow&quot; target=&quot;_NEW&quot;&gt;\nhttp://www.shotpix.com/images/03559379145492721857.jpg&lt;/a&gt; &lt;a href=&quot;\nhttp://www.shotpix.com/images/09320975726377188573.jpg&quot; rel=&quot;nofollow&quot; target=&quot;_NEW&quot;&gt;\nhttp://www.shotpix.com/images/09320975726377188573.jpg&lt;/a&gt;","torrent":{"xt":"urn:btih:0de47e88311bc6ef6a5391124fa35d5549017da9","amp;dn":"Taking+Lives+%282004%29+BRrip+x264+","amp;tr":["udp%3A%2F%2Ftracker.openbittorrent.com%3A80","udp%3A%2F%2Fopen.demonii.com%3A1337","udp%3A%2F%2Ftracker.coppersurfer.tk%3A6969","udp%3A%2F%2Fexodus.desync.com%3A6969"],"infoHash":"0de47e88311bc6ef6a5391124fa35d5549017da9","infoHashBuffer":{"type":"Buffer","data":[13,228,126,136,49,27,198,239,106,83,145,18,79,163,93,85,73,1,125,169]},"announce":[],"urlList":[]}}